<mxfile host="app.diagrams.net" agent="Mozilla/5.0 (Windows NT 10.0; Win64; x64) AppleWebKit/537.36 (KHTML, like Gecko) Chrome/136.0.0.0 Safari/537.36" version="27.0.4">
  <diagram name="Página-1" id="kvHYJM0iRkrb5seB_RW-">
    <mxGraphModel dx="1227" dy="711" grid="1" gridSize="10" guides="1" tooltips="1" connect="1" arrows="1" fold="1" page="1" pageScale="1" pageWidth="1169" pageHeight="827" math="0" shadow="0">
      <root>
        <mxCell id="0" />
        <mxCell id="1" parent="0" />
        <mxCell id="snJbEOIxwLEXYUUREqxb-7" value="CLIENTE" style="shape=umlActor;verticalLabelPosition=bottom;verticalAlign=top;html=1;" vertex="1" parent="1">
          <mxGeometry x="100" y="90" width="70" height="130" as="geometry" />
        </mxCell>
        <mxCell id="snJbEOIxwLEXYUUREqxb-14" value="" style="ellipse;whiteSpace=wrap;html=1;" vertex="1" parent="1">
          <mxGeometry x="200" y="10" width="120" height="80" as="geometry" />
        </mxCell>
        <mxCell id="snJbEOIxwLEXYUUREqxb-16" value="" style="endArrow=none;html=1;rounded=0;" edge="1" parent="1">
          <mxGeometry width="50" height="50" relative="1" as="geometry">
            <mxPoint x="170" y="130" as="sourcePoint" />
            <mxPoint x="220" y="80" as="targetPoint" />
          </mxGeometry>
        </mxCell>
        <mxCell id="snJbEOIxwLEXYUUREqxb-17" value="" style="endArrow=none;html=1;rounded=0;" edge="1" parent="1">
          <mxGeometry width="50" height="50" relative="1" as="geometry">
            <mxPoint x="170" y="130" as="sourcePoint" />
            <mxPoint x="260" y="130" as="targetPoint" />
          </mxGeometry>
        </mxCell>
        <mxCell id="snJbEOIxwLEXYUUREqxb-18" value="" style="ellipse;whiteSpace=wrap;html=1;" vertex="1" parent="1">
          <mxGeometry x="260" y="90" width="120" height="80" as="geometry" />
        </mxCell>
        <mxCell id="snJbEOIxwLEXYUUREqxb-19" value="" style="endArrow=none;html=1;rounded=0;" edge="1" parent="1">
          <mxGeometry width="50" height="50" relative="1" as="geometry">
            <mxPoint x="170" y="130" as="sourcePoint" />
            <mxPoint x="250" y="190" as="targetPoint" />
          </mxGeometry>
        </mxCell>
        <mxCell id="snJbEOIxwLEXYUUREqxb-21" value="" style="ellipse;whiteSpace=wrap;html=1;" vertex="1" parent="1">
          <mxGeometry x="230" y="180" width="120" height="80" as="geometry" />
        </mxCell>
        <mxCell id="snJbEOIxwLEXYUUREqxb-23" value="ADMINISTRADOR" style="shape=umlActor;verticalLabelPosition=bottom;verticalAlign=top;html=1;" vertex="1" parent="1">
          <mxGeometry x="100" y="340" width="80" height="160" as="geometry" />
        </mxCell>
        <mxCell id="snJbEOIxwLEXYUUREqxb-24" value="" style="endArrow=none;html=1;rounded=0;" edge="1" parent="1">
          <mxGeometry width="50" height="50" relative="1" as="geometry">
            <mxPoint x="180" y="390" as="sourcePoint" />
            <mxPoint x="280" y="390" as="targetPoint" />
          </mxGeometry>
        </mxCell>
        <mxCell id="snJbEOIxwLEXYUUREqxb-25" value="" style="ellipse;whiteSpace=wrap;html=1;" vertex="1" parent="1">
          <mxGeometry x="280" y="350" width="120" height="80" as="geometry" />
        </mxCell>
        <mxCell id="snJbEOIxwLEXYUUREqxb-26" value="" style="endArrow=none;html=1;rounded=0;" edge="1" parent="1">
          <mxGeometry width="50" height="50" relative="1" as="geometry">
            <mxPoint x="180" y="390" as="sourcePoint" />
            <mxPoint x="250" y="450" as="targetPoint" />
          </mxGeometry>
        </mxCell>
        <mxCell id="snJbEOIxwLEXYUUREqxb-27" value="" style="ellipse;whiteSpace=wrap;html=1;" vertex="1" parent="1">
          <mxGeometry x="220" y="440" width="120" height="80" as="geometry" />
        </mxCell>
        <mxCell id="snJbEOIxwLEXYUUREqxb-28" value="ADMINISTRADOR" style="shape=umlActor;verticalLabelPosition=bottom;verticalAlign=top;html=1;outlineConnect=0;" vertex="1" parent="1">
          <mxGeometry x="500" y="180" width="100" height="160" as="geometry" />
        </mxCell>
        <mxCell id="snJbEOIxwLEXYUUREqxb-29" value="" style="endArrow=none;html=1;rounded=0;" edge="1" parent="1">
          <mxGeometry width="50" height="50" relative="1" as="geometry">
            <mxPoint x="350" y="230" as="sourcePoint" />
            <mxPoint x="500" y="230" as="targetPoint" />
          </mxGeometry>
        </mxCell>
        <mxCell id="snJbEOIxwLEXYUUREqxb-32" value="ENVIAR MENSAGEM PARA O CHATBOT&amp;nbsp;" style="text;html=1;align=center;verticalAlign=middle;whiteSpace=wrap;rounded=0;" vertex="1" parent="1">
          <mxGeometry x="210" y="42.5" width="100" height="15" as="geometry" />
        </mxCell>
        <mxCell id="snJbEOIxwLEXYUUREqxb-36" value="RECEBER ATENDIMENTO AUTOMATIZADO" style="text;html=1;align=center;verticalAlign=middle;whiteSpace=wrap;rounded=0;" vertex="1" parent="1">
          <mxGeometry x="290" y="115" width="60" height="30" as="geometry" />
        </mxCell>
        <mxCell id="snJbEOIxwLEXYUUREqxb-37" value="SOLICITAR INFORMAÇÕES DE PEEIDO" style="text;html=1;align=center;verticalAlign=middle;whiteSpace=wrap;rounded=0;" vertex="1" parent="1">
          <mxGeometry x="260" y="205" width="60" height="30" as="geometry" />
        </mxCell>
        <mxCell id="snJbEOIxwLEXYUUREqxb-43" value="REDIRECIONAR PARA ATENDIMENTO HUMANO&amp;nbsp;" style="text;html=1;align=center;verticalAlign=middle;whiteSpace=wrap;rounded=0;" vertex="1" parent="1">
          <mxGeometry x="290" y="377.5" width="100" height="25" as="geometry" />
        </mxCell>
        <mxCell id="snJbEOIxwLEXYUUREqxb-45" value="REGISTRAR LEAD NO CRM" style="text;html=1;align=center;verticalAlign=middle;whiteSpace=wrap;rounded=0;" vertex="1" parent="1">
          <mxGeometry x="235" y="465" width="90" height="30" as="geometry" />
        </mxCell>
        <mxCell id="snJbEOIxwLEXYUUREqxb-52" value="" style="rounded=0;whiteSpace=wrap;html=1;" vertex="1" parent="1">
          <mxGeometry x="852.5" y="20" width="120" height="53.75" as="geometry" />
        </mxCell>
        <mxCell id="snJbEOIxwLEXYUUREqxb-53" value="INICÍO" style="text;html=1;align=center;verticalAlign=middle;whiteSpace=wrap;rounded=0;" vertex="1" parent="1">
          <mxGeometry x="882.5" y="35" width="60" height="30" as="geometry" />
        </mxCell>
        <mxCell id="snJbEOIxwLEXYUUREqxb-61" value="" style="endArrow=classic;html=1;rounded=0;" edge="1" parent="1">
          <mxGeometry width="50" height="50" relative="1" as="geometry">
            <mxPoint x="911.92" y="73.75" as="sourcePoint" />
            <mxPoint x="912.01" y="133.75" as="targetPoint" />
          </mxGeometry>
        </mxCell>
        <mxCell id="snJbEOIxwLEXYUUREqxb-62" value="" style="rounded=1;whiteSpace=wrap;html=1;" vertex="1" parent="1">
          <mxGeometry x="823.75" y="140" width="177.5" height="60" as="geometry" />
        </mxCell>
        <mxCell id="snJbEOIxwLEXYUUREqxb-63" value="USUÁRIO ENVIA MENSAGEM" style="text;html=1;align=center;verticalAlign=middle;whiteSpace=wrap;rounded=0;" vertex="1" parent="1">
          <mxGeometry x="852.5" y="155" width="120" height="30" as="geometry" />
        </mxCell>
        <mxCell id="snJbEOIxwLEXYUUREqxb-66" value="" style="endArrow=classic;html=1;rounded=0;" edge="1" parent="1">
          <mxGeometry width="50" height="50" relative="1" as="geometry">
            <mxPoint x="911.92" y="200" as="sourcePoint" />
            <mxPoint x="912.01" y="260" as="targetPoint" />
          </mxGeometry>
        </mxCell>
        <mxCell id="snJbEOIxwLEXYUUREqxb-67" value="" style="rhombus;whiteSpace=wrap;html=1;" vertex="1" parent="1">
          <mxGeometry x="834.38" y="260" width="156.25" height="100" as="geometry" />
        </mxCell>
        <mxCell id="snJbEOIxwLEXYUUREqxb-68" value="INTERAÇÃO RECONHECIDA" style="text;html=1;align=center;verticalAlign=middle;whiteSpace=wrap;rounded=0;" vertex="1" parent="1">
          <mxGeometry x="882.5" y="295" width="60" height="30" as="geometry" />
        </mxCell>
        <mxCell id="snJbEOIxwLEXYUUREqxb-70" value="" style="endArrow=classic;html=1;rounded=0;" edge="1" parent="1">
          <mxGeometry width="50" height="50" relative="1" as="geometry">
            <mxPoint x="911.92" y="360" as="sourcePoint" />
            <mxPoint x="912.01" y="420" as="targetPoint" />
          </mxGeometry>
        </mxCell>
        <mxCell id="snJbEOIxwLEXYUUREqxb-71" value="" style="rounded=1;whiteSpace=wrap;html=1;" vertex="1" parent="1">
          <mxGeometry x="812.5" y="425" width="200" height="60" as="geometry" />
        </mxCell>
        <mxCell id="snJbEOIxwLEXYUUREqxb-72" value="EXECUTA RESPOTA AUTOMATIZADA" style="text;html=1;align=center;verticalAlign=middle;whiteSpace=wrap;rounded=0;" vertex="1" parent="1">
          <mxGeometry x="847.5" y="440" width="130" height="30" as="geometry" />
        </mxCell>
        <mxCell id="snJbEOIxwLEXYUUREqxb-76" value="" style="endArrow=classic;html=1;rounded=0;" edge="1" parent="1">
          <mxGeometry width="50" height="50" relative="1" as="geometry">
            <mxPoint x="911.91" y="485" as="sourcePoint" />
            <mxPoint x="912" y="545" as="targetPoint" />
          </mxGeometry>
        </mxCell>
        <mxCell id="snJbEOIxwLEXYUUREqxb-78" value="" style="rounded=1;whiteSpace=wrap;html=1;" vertex="1" parent="1">
          <mxGeometry x="822.5" y="550" width="190" height="60" as="geometry" />
        </mxCell>
        <mxCell id="snJbEOIxwLEXYUUREqxb-79" value="ATUALIZA&amp;nbsp; SISTEMA (CRM OU BANCO)" style="text;html=1;align=center;verticalAlign=middle;whiteSpace=wrap;rounded=0;" vertex="1" parent="1">
          <mxGeometry x="847.5" y="565" width="130" height="30" as="geometry" />
        </mxCell>
        <mxCell id="snJbEOIxwLEXYUUREqxb-80" value="" style="endArrow=classic;html=1;rounded=0;" edge="1" parent="1">
          <mxGeometry width="50" height="50" relative="1" as="geometry">
            <mxPoint x="911.9200000000001" y="610" as="sourcePoint" />
            <mxPoint x="911.9200000000001" y="670" as="targetPoint" />
          </mxGeometry>
        </mxCell>
        <mxCell id="snJbEOIxwLEXYUUREqxb-81" value="" style="ellipse;whiteSpace=wrap;html=1;" vertex="1" parent="1">
          <mxGeometry x="852.5" y="670" width="120" height="80" as="geometry" />
        </mxCell>
        <mxCell id="snJbEOIxwLEXYUUREqxb-82" value="FIM" style="text;html=1;align=center;verticalAlign=middle;whiteSpace=wrap;rounded=0;" vertex="1" parent="1">
          <mxGeometry x="882.5" y="695" width="60" height="30" as="geometry" />
        </mxCell>
        <mxCell id="snJbEOIxwLEXYUUREqxb-84" value="" style="endArrow=classic;html=1;rounded=0;" edge="1" parent="1">
          <mxGeometry width="50" height="50" relative="1" as="geometry">
            <mxPoint x="990.63" y="309.40999999999997" as="sourcePoint" />
            <mxPoint x="1040.63" y="309.40999999999997" as="targetPoint" />
          </mxGeometry>
        </mxCell>
        <mxCell id="snJbEOIxwLEXYUUREqxb-85" value="" style="ellipse;whiteSpace=wrap;html=1;" vertex="1" parent="1">
          <mxGeometry x="1040" y="290" width="50" height="40" as="geometry" />
        </mxCell>
        <mxCell id="snJbEOIxwLEXYUUREqxb-86" value="NÃO" style="text;html=1;align=center;verticalAlign=middle;whiteSpace=wrap;rounded=0;" vertex="1" parent="1">
          <mxGeometry x="1035" y="295" width="60" height="30" as="geometry" />
        </mxCell>
        <mxCell id="snJbEOIxwLEXYUUREqxb-87" value="" style="endArrow=classic;html=1;rounded=0;" edge="1" parent="1">
          <mxGeometry width="50" height="50" relative="1" as="geometry">
            <mxPoint x="1070" y="330" as="sourcePoint" />
            <mxPoint x="1070" y="400" as="targetPoint" />
          </mxGeometry>
        </mxCell>
        <mxCell id="snJbEOIxwLEXYUUREqxb-88" value="" style="rounded=1;whiteSpace=wrap;html=1;" vertex="1" parent="1">
          <mxGeometry x="1030" y="402.5" width="120" height="60" as="geometry" />
        </mxCell>
        <mxCell id="snJbEOIxwLEXYUUREqxb-90" value="ENCAMINHA PARA O ADMINISTRADOR." style="text;html=1;align=center;verticalAlign=middle;whiteSpace=wrap;rounded=0;" vertex="1" parent="1">
          <mxGeometry x="1030" y="417.5" width="120" height="30" as="geometry" />
        </mxCell>
      </root>
    </mxGraphModel>
  </diagram>
</mxfile>
